#!OML:ASF H:\Dans Jumps\Project 1\Capture day 1\Session 1\subject.ASF
:FULLY-SPECIFIED
:DEGREES
1115
root -1.22805 18.0132 1.81454 7.81474 -1.16926 6.49987
lowerback 19.0901 4.39298 -4.94341
upperback 12.4983 4.96997 -2.81603
thorax 2.74518 2.33149 -1.03231
lowerneck -11.7855 -1.47035 -1.33
upperneck -16.8848 -1.68625 0.887129
head -3.48198 -0.748743 0.506534
rclavicle 2.38542e-015 2.06736e-014
rhumerus -13.6493 -2.4734 -86.6412
rradius 38.508
rwrist 12.5585
rhand -27.8829 -27.026
rfingers 7.12502
rthumb -1.27278 -57.002
lclavicle 2.38542e-015 2.06736e-014
lhumerus -21.8047 -17.597 73.2681
lradius 47.7066
lwrist 21.7757
lhand -27.2153 -11.1481
lfingers 7.12502
lthumb -0.628019 18.8308
rfemur -20.6738 -9.3489 19.1167
rtibia 24.378
rfoot -11.3169 -10.918
rtoes 24.5217
lfemur -60.9215 -1.55054 -1.4563
ltibia 81.1724
lfoot -12.2335 7.30211
ltoes -15.1766
1116
root -1.26255 18.0527 1.82489 7.43618 -1.07283 7.04147
lowerback 18.9878 4.43591 -5.28102
upperback 12.3995 4.98332 -3.12958
thorax 2.69609 2.33492 -1.17707
lowerneck -11.7667 -1.59303 -1.51658
upperneck -16.547 -1.79033 1.32002
head -3.357 -0.802798 0.676723
rclavicle -2.80286e-014 -7.55382e-015
rhumerus -13.8332 -2.03922 -86.9292
rradius 38.8387
rwrist 12.5281
rhand -27.8012 -27.1852
rfingers 7.12502
rthumb -1.19387 -57.1616
lclavicle -2.80286e-014 -7.55382e-015
lhumerus -21.8367 -17.4542 72.5769
lradius 47.8837
lwrist 21.8209
lhand -27.4995 -11.6841
lfingers 7.12502
lthumb -0.902507 18.2938
rfemur -19.5326 -9.33465 18.5235
rtibia 23.1585
rfoot -10.8998 -11.0172
rtoes 24.6441
lfemur -61.1577 -1.44282 -0.614464
ltibia 81.6212
lfoot -13.407 9.01866
ltoes -15.0168
1117
root -1.29866 18.0924 1.83694 7.13197 -0.982709 7.48878
lowerback 18.7989 4.47573 -5.58361
upperback 12.3045 5.00595 -3.40367
thorax 2.69364 2.34237 -1.29469
lowerneck -11.8929 -1.69019 -1.60666
upperneck -16.15 -1.88252 1.61768
head -3.1893 -0.85218 0.78301
rclavicle 8.94531e-015 -2.50469e-014
rhumerus -13.8748 -1.71009 -87.1854
rradius 38.9739
rwrist 12.6684
rhand -27.6852 -27.0447
rfingers 7.12502
rthumb -1.08189 -57.0218
lclavicle 8.94531e-015 -2.50469e-014
lhumerus -21.7241 -17.311 71.8624
lradius 48.0028
lwrist 22.0405
lhand -27.5771 -11.7717
lfingers 7.12502
lthumb -0.977449 18.2058
rfemur -18.4519 -9.23911 18.0458
rtibia 21.9137
rfoot -10.4467 -11.1677
rtoes 24.8163
lfemur -61.4437 -1.21634 0.305908
ltibia 82.0009
lfoot -14.3276 10.7719
ltoes -14.3458
1118
root -1.33417 18.1288 1.84872 6.82813 -0.860897 7.90823
lowerback 18.6274 4.50965 -5.84181
upperback 12.2267 5.0281 -3.66713
thorax 2.70391 2.35164 -1.42615
lowerneck -12.1018 -1.83047 -1.68831
upperneck -15.6802 -2.0361 1.90706
head -2.98251 -0.931975 0.881535
rclavicle -8.68689e-014 8.52786e-014
rhumerus -13.9729 -1.43437 -87.4402
rradius 39.2433
rwrist 12.7347
rhand -27.4972 -26.9097
rfingers 7.12502
rthumb -0.900325 -56.8876
lclavicle -8.68689e-014 8.52786e-014
lhumerus -21.5927 -17.0633 71.1671
lradius 48.1308
lwrist 22.1789
lhand -28.0021 -11.8299
lfingers 7.12502
lthumb -1.38794 18.1453
rfemur -17.3701 -9.0973 17.6046
rtibia 20.6516
rfoot -9.95894 -11.4071
rtoes 24.9981
lfemur -61.7493 -0.946244 1.2361
ltibia 82.3272
lfoot -14.9591 12.5148
ltoes -13.5011
1119
root -1.36724 18.1642 1.86044 6.60795 -0.653223 8.28778
lowerback 18.4416 4.4912 -6.02617
upperback 12.079 4.99104 -3.91762
thorax 2.64799 2.33656 -1.57593
lowerneck -12.2464 -1.92854 -1.84653
upperneck -15.17 -2.12459 2.23603
head -2.77433 -0.975196 1.00565
rclavicle -3.73715e-014 -2.36554e-014
rhumerus -14.1468 -1.11537 -87.6764
rradius 39.5099
rwrist 12.7587
rhand -27.5145 -26.7355
rfingers 7.12502
rthumb -0.917003 -56.7133
lclavicle -3.73715e-014 -2.36554e-014
lhumerus -21.5232 -16.7578 70.4927
lradius 48.2779
lwrist 22.3203
lhand -28.1951 -12.385
lfingers 7.12502
lthumb -1.57438 17.5889
rfemur -16.3308 -9.00929 17.2108
rtibia 19.3457
rfoot -9.46977 -11.675
rtoes 25.1086
lfemur -62.1858 -0.676294 2.16583
ltibia 82.6191
lfoot -15.4491 14.2395
ltoes -10.9193
1120
root -1.40167 18.1973 1.8689 6.44463 -0.360004 8.64728
lowerback 18.2251 4.43969 -6.20335
upperback 11.9561 4.91812 -4.14792
thorax 2.63431 2.30237 -1.6993
lowerneck -12.5423 -2.03208 -1.99443
upperneck -14.5702 -2.22529 2.52647
head -2.51294 -1.02277 1.11109
rclavicle -1.61016e-014 3.18055e-015
rhumerus -14.0673 -0.762988 -87.8984
rradius 39.5043
rwrist 12.7238
rhand -27.5772 -26.4981
rfingers 7.12502
rthumb -0.977584 -56.4756
lclavicle -1.61016e-014 3.18055e-015
lhumerus -21.3284 -16.3869 69.8266
lradius 48.2318
lwrist 22.1883
lhand -28.7107 -12.6866
lfingers 7.12502
lthumb -2.07229 17.2831
rfemur -15.3142 -8.73131 16.8424
rtibia 17.987
rfoot -8.95106 -12.2321
rtoes 25.2207
lfemur -62.7352 -0.352856 3.06951
ltibia 82.8456
lfoot -15.9893 15.776
ltoes -8.20337
1121
root -1.43426 18.229 1.88193 6.25719 -0.0115713 9.00146
lowerback 18.0426 4.37256 -6.34885
upperback 11.8038 4.82445 -4.3656
thorax 2.5718 2.26021 -1.82689
lowerneck -12.6704 -2.13757 -2.14252
upperneck -14.0306 -2.33447 2.80485
head -2.3016 -1.07462 1.21466
rclavicle 2.40529e-014 8.05078e-015
rhumerus -14.2898 -0.406681 -88.1267
rradius 39.7586
rwrist 12.6856
rhand -27.6623 -26.5305
rfingers 7.12502
rthumb -1.05979 -56.5076
lclavicle 2.40529e-014 8.05078e-015
lhumerus -21.2098 -15.9256 69.1964
lradius 48.3415
lwrist 22.1215
lhand -28.7846 -12.0756
lfingers 7.12502
lthumb -2.14373 17.8934
rfemur -14.1907 -8.4677 16.473
rtibia 16.5324
rfoot -8.42628 -12.8158
rtoes 25.5205
lfemur -63.2652 -0.0438616 3.90338
ltibia 82.9816
lfoot -16.7145 17.3094
ltoes -5.42154
1122
root -1.4689 18.2593 1.89539 6.09323 0.387372 9.24331
lowerback 17.7881 4.27957 -6.40335
upperback 11.6965 4.72151 -4.54355
thorax 2.59769 2.21498 -1.95445
lowerneck -12.8626 -2.22863 -2.27195
upperneck -13.5013 -2.42955 3.03916
head -2.08619 -1.11835 1.29993
rclavicle -3.34455e-014 -5.99336e-014
rhumerus -14.4592 -0.079192 -88.3576
rradius 40.1064
rwrist 12.4945
rhand -27.7185 -26.5155
rfingers 7.12502
rthumb -1.11403 -56.4924
lclavicle -3.34455e-014 -5.99336e-014
lhumerus -21.0169 -15.3931 68.5693
lradius 48.1572
lwrist 21.8848
lhand -29.3381 -13.7574
lfingers 7.12502
lthumb -2.67819 16.2055
rfemur -13.0303 -8.17291 16.2451
rtibia 14.9761
rfoot -7.84891 -13.4999
rtoes 25.8293
lfemur -63.8213 0.359398 4.78484
ltibia 83.0149
lfoot -17.6169 18.6999
ltoes -2.38504
1123
root -1.50549 18.291 1.90242 5.97033 0.870011 9.49469
lowerback 17.6269 4.1618 -6.46645
upperback 11.5446 4.57198 -4.71677
thorax 2.52561 2.14776 -2.07308
lowerneck -13.0958 -2.3218 -2.4406
upperneck -12.8591 -2.52171 3.33277
head -1.82735 -1.15855 1.4088
rclavicle 3.15571e-014 -3.10601e-014
rhumerus -14.5749 0.282082 -88.5735
rradius 40.2951
rwrist 12.2176
rhand -27.9313 -26.4465
rfingers 7.12502
rthumb -1.31959 -56.4222
lclavicle 3.15571e-014 -3.10601e-014
lhumerus -20.884 -14.827 67.9838
lradius 48.0189
lwrist 21.6914
lhand -29.9937 -15.2778
lfingers 7.12502
lthumb -3.31135 14.6762
rfemur -11.8829 -7.87152 16.0198
rtibia 13.3411
rfoot -7.24971 -14.2463
rtoes 26.1568
lfemur -64.4291 0.702897 5.56605
ltibia 82.8967
lfoot -18.3764 20.2843
ltoes 0.432303
1124
root -1.53814 18.3168 1.91485 5.83704 1.41403 9.68052
lowerback 17.404 4.00815 -6.44401
upperback 11.4228 4.39687 -4.85901
thorax 2.52021 2.06975 -2.19709
lowerneck -13.3501 -2.37576 -2.58868
upperneck -12.2404 -2.5694 3.54859
head -1.57733 -1.1753 1.49064
rclavicle -4.79568e-014 8.36883e-014
rhumerus -14.705 0.636112 -88.7669
rradius 40.546
rwrist 12.1301
rhand -28.0956 -26.5115
rfingers 7.12502
rthumb -1.47829 -56.4861
lclavicle -4.79568e-014 8.36883e-014
lhumerus -20.7247 -14.145 67.4043
lradius 48.1171
lwrist 21.7533
lhand -30.1755 -14.7454
lfingers 7.12502
lthumb -3.48691 15.2058
rfemur -10.6428 -7.69831 15.8581
rtibia 11.6022
rfoot -6.58071 -14.9034
rtoes 26.3749
lfemur -65.0537 1.12408 6.27591
ltibia 82.7096
lfoot -19.1806 21.9456
ltoes 3.08786
1125
root -1.57064 18.3389 1.92693 5.72271 2.00754 9.96966
lowerback 17.2166 3.85111 -6.4979
upperback 11.317 4.20494 -5.04164
thorax 2.51357 1.98104 -2.32216
lowerneck -13.6142 -2.46369 -2.75654
upperneck -11.6572 -2.65596 3.8413
head -1.33601 -1.21033 1.60097
rclavicle -3.16068e-014 6.04927e-014
rhumerus -14.9162 0.992196 -88.9872
rradius 41.019
rwrist 11.931
rhand -28.2146 -26.8103
rfingers 7.12502
rthumb -1.59316 -56.7841
lclavicle -3.16068e-014 6.04927e-014
lhumerus -20.4371 -13.4739 66.8182
lradius 48.0375
lwrist 21.8189
lhand -30.7011 -15.3354
lfingers 7.12502
lthumb -3.99446 14.6069
rfemur -9.39297 -8.14493 15.6804
rtibia 9.8036
rfoot -5.87862 -14.9961
rtoes 26.6453
lfemur -65.7156 1.54623 6.74351
ltibia 82.4096
lfoot -19.9588 23.7034
ltoes 5.74036
1126
root -1.60206 18.3592 1.941 5.5884 2.72794 10.1935
lowerback 16.999 3.64112 -6.45279
upperback 11.2531 3.9649 -5.1881
thorax 2.56978 1.87105 -2.45386
lowerneck -13.7961 -2.56371 -2.84201
upperneck -11.1807 -2.77573 4.04326
head -1.14391 -1.26527 1.66938
rclavicle -5.45664e-014 6.65929e-014
rhumerus -14.9164 1.30079 -89.1813
rradius 41.1741
rwrist 11.8985
rhand -28.3617 -27.0293
rfingers 7.12502
rthumb -1.73526 -57.002
lclavicle -5.45664e-014 6.65929e-014
lhumerus -20.1789 -12.809 66.2828
lradius 48.0132
lwrist 22.1239
lhand -31.3332 -16.3179
lfingers 7.12502
lthumb -4.60488 13.612
rfemur -8.03754 -8.71776 15.542
rtibia 7.93258
rfoot -5.18018 -15.0671
rtoes 27.0433
lfemur -66.3919 1.91499 7.16416
ltibia 82.0114
lfoot -20.9723 25.3475
ltoes 8.52959
1127
root -1.63584 18.3744 1.94738 5.49146 3.41493 10.3819
lowerback 16.9376 3.46117 -6.42498
upperback 11.0926 3.73474 -5.32911
thorax 2.43668 1.76795 -2.58411
lowerneck -13.9309 -2.61784 -3.15417
upperneck -10.6463 -2.79692 4.47401
head -0.936382 -1.26173 1.85671
rclavicle 1.54555e-014 -4.46272e-014
rhumerus -15.044 1.58786 -89.3702
rradius 41.3136
rwrist 11.7022
rhand -28.6161 -27.0063
rfingers 7.12502
rthumb -1.98092 -56.9768
lclavicle 1.54555e-014 -4.46272e-014
lhumerus -19.9297 -12.2097 65.7575
lradius 47.9323
lwrist 22.5495
lhand -31.8279 -16.7274
lfingers 7.12502
lthumb -5.08254 13.1917
rfemur -6.70021 -9.25487 15.4522
rtibia 5.9369
rfoot -4.41011 -15.1123
rtoes 27.4436
lfemur -67.0861 2.41369 7.50935
ltibia 81.4736
lfoot -21.9585 26.7922
ltoes 11.3634
1128
root -1.66746 18.39 1.9562 5.36545 4.15406 10.6482
lowerback 16.8537 3.25687 -6.46894
upperback 10.9768 3.46979 -5.46841
thorax 2.36016 1.64245 -2.66549
lowerneck -14.1828 -2.69188 -3.23869
upperneck -10.0451 -2.88854 4.64305
head -0.693343 -1.30005 1.91492
rclavicle 6.04305e-014 -6.95746e-016
rhumerus -15.109 1.97495 -89.5109
rradius 41.4661
rwrist 11.5078
rhand -28.8444 -26.9625
rfingers 7.12502
rthumb -2.20139 -56.9309
lclavicle 6.04305e-014 -6.95746e-016
lhumerus -19.7323 -11.4413 65.2772
lradius 48.0381
lwrist 22.9877
lhand -32.2051 -16.882
lfingers 7.12502
lthumb -5.44678 13.028
rfemur -4.8071 -9.86053 15.2043
rtibia 3.00156
rfoot -3.15822 -15.133
rtoes 27.6878
lfemur -67.7343 2.8283 7.62985
ltibia 80.8091
lfoot -22.9021 28.0958
ltoes 14.1945
1129
root -1.69711 18.3997 1.9678 5.24984 4.87691 10.8654
lowerback 16.7934 3.06846 -6.45129
upperback 10.8186 3.22644 -5.61261
thorax 2.22697 1.53196 -2.79163
lowerneck -14.1524 -2.80591 -3.39267
upperneck -9.58421 -3.02618 4.91159
head -0.534845 -1.3624 2.02109
rclavicle -6.7885e-014 7.95139e-015
rhumerus -15.3725 2.20098 -89.6715
rradius 41.7562
rwrist 11.5187
rhand -28.9614 -27.0187
rfingers 7.12502
rthumb -2.31446 -56.9859
lclavicle -6.7885e-014 7.95139e-015
lhumerus -19.5292 -10.8874 64.8126
lradius 47.9749
lwrist 23.4155
lhand -32.8654 -17.5618
lfingers 7.12502
lthumb -6.08425 12.3308
rfemur -2.87943 -10.4498 14.9623
rtibia -6.75868e-015
rfoot -1.85011 -15.1672
rtoes 28.0185
lfemur -68.3578 3.36407 7.69664
ltibia 80.0602
lfoot -24.0889 28.7311
ltoes 17.1638
